<svg xmlns="http://www.w3.org/2000/svg" version="1.1" viewBox="-5.0 -10.0 110.0 135.0">
 <path fill="#DC2626" d="m47.707 53.766v-30.984c0-2.3359-1.4766-4.2695-3.7344-4.8711l-14.996-4.0195-1.9023 3.0625c-0.86719 1.3945-2.4766 2.0312-4.0625 1.6055l-5.5742-1.4922c-1.5859-0.42578-2.6641-1.7852-2.7148-3.4219l-0.11719-3.6055c-0.48828-0.12891-0.77734-0.63281-0.64844-1.1211l0.23438-0.87891c0.39062-1.4648 1.9062-2.3398 3.3672-1.9453l27.594 7.3945c1.4805 0.39844 2.793 1.1094 3.8789 2.0586 0.55469 0.48828 1.375 0.48828 1.9297 0 1.0859-0.94922 2.3984-1.6641 3.8789-2.0586l27.594-7.3945c1.4648-0.39062 2.9766 0.48047 3.3672 1.9453l0.23828 0.87891c0.12891 0.48828-0.16016 0.99219-0.64844 1.1211l-0.11719 3.6055c-0.054688 1.6406-1.1289 3-2.7148 3.4219l-5.5742 1.4922c-1.5859 0.42578-3.1992-0.21094-4.0625-1.6055l-1.9023-3.0625-14.996 4.0195c-2.2578 0.60547-3.7344 2.5391-3.7344 4.8711v30.984zm-8.9297 40.234h22.441c0.60547 0 1.1016-0.49609 1.1016-1.1016v-4.793c0-0.60547-0.49609-1.1016-1.1016-1.1016l-22.441 0.003906c-0.60547 0-1.1016 0.49609-1.1016 1.1016v4.793c0.003907 0.60156 0.5 1.0977 1.1016 1.0977zm17-9.5586v-24.625c0-1.918-1.5664-3.4844-3.4844-3.4844h-4.582c-1.918 0-3.4844 1.5664-3.4844 3.4844v24.625zm-32.145-60.66 0.78516 2.9336c0.18359 0.68359 0.88672 1.0898 1.5703 0.90625 0.68359-0.18359 1.0898-0.88672 0.90625-1.5703l-0.78516-2.9336c-0.18359-0.68359-0.88672-1.0898-1.5703-0.90625-0.68359 0.18359-1.0898 0.88672-0.90625 1.5703zm-11.152-4.3164-2.1484 2.1484c-0.5 0.5-0.5 1.3125 0 1.8164 0.5 0.5 1.3125 0.5 1.8164 0l2.1484-2.1484c0.5-0.5 0.5-1.3125 0-1.8164-0.50391-0.5-1.3164-0.5-1.8164 0zm5 3.6523-0.78516 2.9336c-0.18359 0.68359 0.22266 1.3867 0.90625 1.5703 0.68359 0.18359 1.3867-0.22266 1.5703-0.90625l0.78516-2.9336c0.18359-0.68359-0.22266-1.3867-0.90625-1.5703-0.6875-0.18359-1.3906 0.22266-1.5703 0.90625zm56.41 0-0.78516 2.9336c-0.18359 0.68359 0.22266 1.3867 0.90625 1.5703 0.68359 0.18359 1.3867-0.22266 1.5703-0.90625l0.78516-2.9336c0.18359-0.68359-0.22266-1.3867-0.90625-1.5703-0.68359-0.18359-1.3867 0.22266-1.5703 0.90625zm11.816-1.8359 2.1484 2.1484c0.5 0.5 1.3125 0.5 1.8164 0 0.5-0.5 0.5-1.3125 0-1.8164l-2.1484-2.1484c-0.5-0.5-1.3125-0.5-1.8164 0-0.50391 0.5-0.50391 1.3125 0 1.8164zm-5.6602 2.5 0.78516 2.9336c0.18359 0.68359 0.88672 1.0898 1.5703 0.90625s1.0898-0.88672 0.90625-1.5703l-0.78516-2.9336c-0.18359-0.68359-0.88672-1.0898-1.5703-0.90625-0.68359 0.18359-1.0898 0.88672-0.90625 1.5703z" fill-rule="evenodd"/>
</svg>