<svg xmlns="http://www.w3.org/2000/svg" xmlns:xlink="http://www.w3.org/1999/xlink" version="1.1" x="0px" y="0px" viewBox="0 0 100 125" enable-background="new 0 0 100 100" xml:space="preserve"><g><polygon points="22.77,91.502 20.854,88.554 23.769,85.606 19.964,80.246 19.964,95.051 21.259,95.051 20.188,94.155  "/><path d="M76.987,13.776l-3.618-7.054l1.435-1.692H61.293l-5.692,8.587l-5.527-5.573v9.973h-30.11v20.661v13.29v28.199l4.971,5.586   l-2.998,2.874l1.666,2.874l-2.332,2.432l1.262,1.117h57.11V32.472l-9.168-11.642L76.987,13.776z M40.141,88.119H26.29V74.282h13.85   V88.119z M40.141,64.026H26.29v-13.85h13.85V64.026z M40.141,39.804h-1.51l0.242-0.245l-1.916-2.948l2.582-2.653l-4.581-3.832   l2.832-2.948l-3.914,2.948l4.581,4.054l-2.332,2.432l1.666,2.874l-0.332,0.318H26.29V25.967h13.85V39.804z M46.196,84.774   l4.388-4.753l-2.438-4.753l3.413-4.022l-6.703-6.703l5.728-4.875l-4.144,4.875l6.703,6.338l-3.778,4.388l2.803,4.875l-4.266,4.875   l5.972,9.506L46.196,84.774z M59.467,25.967h8.233l0.614,2.357l-3.771,1.723l0.746,3.436l-3.355,1.565l2.671,4.756h-5.138V25.967z    M59.467,56.556l1.669,0.283l0.023,4.146l3.439,0.73l0.031,2.311h-5.163V56.556z M73.317,88.119h-13.85V74.282h13.85V88.119z    M73.317,64.026h-8.069l-0.061-2.9l-3.21-0.855l0.088-4.153l-2.598-0.151v-5.792h13.85V64.026z M73.317,39.804h-2.774l0.7-0.31   l-0.592-3.136l2.667-1.049V39.804z M73.317,25.967v6.244l-1.825-4.415l1.825,6.325v0.238l-3.654,1.551l0.801,3.289l-1.395,0.605   h-3.638l-2.407-4.579l3.043-1.447L65.529,30.5l3.823-1.625l-1.111-2.909H73.317z"/><polygon points="76.635,5.03 75.178,6.722 79.338,13.957 73.007,21.193 79.643,31.755 79.643,5.03  "/></g></svg>