<svg xmlns="http://www.w3.org/2000/svg" viewBox="0 0 64 80" x="0px" y="0px"><g data-name="06 Damaged Road"><path d="M61,59.73,54.82,38.24a1,1,0,0,0-.66-.68,1,1,0,0,0-.92.17l-7.17,5.73,3.77-5.92a1,1,0,0,0-.45-1.46l-5.17-2.22,7.34-4.28A1,1,0,0,0,52,28.44L45,3.73A1,1,0,0,0,44,3H20a1,1,0,0,0-1,.73L13.37,23.56a1,1,0,0,0,.32,1,1,1,0,0,0,1.09.13l4.88-2.44-6.4,7a1,1,0,0,0-.18,1.06L15.7,36.5,9.16,39.56a1,1,0,0,0-.54.63L3,59.73a1,1,0,0,0,.16.87A1,1,0,0,0,4,61H60a1,1,0,0,0,.8-.4A1,1,0,0,0,61,59.73ZM5.33,59l5.09-17.83,7-3.26a1,1,0,0,0,.5-1.3L15.17,30.2l9.57-10.53a1,1,0,0,0-1.19-1.56l-7.63,3.81L20.75,5h22.5l6.64,23.24-8.39,4.9a1,1,0,0,0-.5.92,1,1,0,0,0,.61.86l5.91,2.54-6.36,10a1,1,0,0,0,1.46,1.32l10.69-8.55L58.67,59Z"/><path d="M32,8a1,1,0,0,0-1,1v5a1,1,0,0,0,2,0V9A1,1,0,0,0,32,8Z"/><path d="M32,48a1,1,0,0,0-1,1v5a1,1,0,0,0,2,0V49A1,1,0,0,0,32,48Z"/><path d="M32,38a1,1,0,0,0-1,1v5a1,1,0,0,0,2,0V39A1,1,0,0,0,32,38Z"/><path d="M32,18a1,1,0,0,0-1,1v5a1,1,0,0,0,2,0V19A1,1,0,0,0,32,18Z"/><path d="M32,28a1,1,0,0,0-1,1v5a1,1,0,0,0,2,0V29A1,1,0,0,0,32,28Z"/></g><text x="0" y="79" fill="#000000" font-size="5px" font-weight="bold" font-family="'Helvetica Neue', Helvetica, Arial-Unicode, Arial, Sans-serif">Created by Berkah Icon</text><text x="0" y="84" fill="#000000" font-size="5px" font-weight="bold" font-family="'Helvetica Neue', Helvetica, Arial-Unicode, Arial, Sans-serif">from the Noun Project</text></svg>