<svg xmlns:dc="http://purl.org/dc/elements/1.1/" xmlns:cc="http://creativecommons.org/ns#" xmlns:rdf="http://www.w3.org/1999/02/22-rdf-syntax-ns#" xmlns:svg="http://www.w3.org/2000/svg" xmlns="http://www.w3.org/2000/svg" xmlns:sodipodi="http://sodipodi.sourceforge.net/DTD/sodipodi-0.dtd" xmlns:inkscape="http://www.inkscape.org/namespaces/inkscape" version="1.1" x="0px" y="0px" viewBox="0 0 100 125"><g transform="translate(0,-952.36218)"><path d="m 12.4375,957.36219 81.15625,0 -6,6 -81.1562499,0 z m 82.5625,1.4375 0,81.15621 -6,6 0,-81.15621 z m -89.9999999,6.5625 15.5937499,0 -5.15625,14.625 -5,-2.5 -0.8749999,1.78125 5.6562499,2.84375 5.6875,11.34377 -2.875,9.62504 1.9375,0.5625 2.875,-9.59384 6.65625,-3.81247 -1,-1.75 -6.0625,3.46875 -5.34375,-10.65625 5.625,-15.9375 64.28125,0 0,82.00001 -10.625,0 1.5625,-4.6875 c 0.0948,-0.2901 0.0472,-0.6231 -0.125,-0.875 l -5,-7 -1.625,1.1562 4.71875,6.5938 -1.625,4.8125 -69.2812499,0 z m 56.9687499,22.25 c -0.80613,1.20564 -1.60539,2.41586 -2.40625,3.625 -4.72793,-1.09905 -9.46462,-2.16058 -14.1875,-3.28125 0.81352,2.13688 1.67962,4.25314 2.53125,6.37502 l -2.71875,5.4062 c -1.832,1.39104 -3.67535,2.76624 -5.53125,4.12504 3.42821,0.7553 6.85441,1.5197 10.28125,2.2812 -0.30891,4.7411 -0.721,9.4758 -1,14.2188 1.9375,0 3.875,0 5.8125,0 5.25,2.625 10.5,5.25 15.75,7.875 -0.78439,-3.1346 -1.56322,-6.2707 -2.34375,-9.4063 1.88492,-1.1258 3.76963,-2.252 5.65625,-3.375 -2.47409,-1.8415 -5.01411,-3.593 -7.53125,-5.375 1.58653,-3.2888 3.34368,-6.4976 4.875,-9.8124 -3.31596,-4.61714 -6.18714,-8.54469 -9.1875,-12.65631 z m -13.3125,3.15625 10.34375,2.37502 0,4.2187 -10.375,0 c 0.49619,-0.976 0.99576,-1.9502 1.46875,-2.9375 -0.44843,-1.2302 -0.95325,-2.43969 -1.4375,-3.65622 z m 13.375,0.375 4.53125,6.21872 -5.5625,0 0,-4.65622 z m -14.40625,8.21872 7.375,0 0,6.00004 -3,0 0.0625,-0.7812 c -2.5731,-0.5721 -5.14586,-1.1457 -7.71875,-1.7188 0.8171,-0.6084 1.6319,-1.2208 2.4375,-1.8437 0.33152,-0.5222 0.57195,-1.10094 0.84375,-1.65634 z m 9.375,0 11,0 0.8125,1.09384 -2.4375,4.9062 -9.375,0 z m -5.125,8.00004 9.125,0 0,6.0312 -9.5625,-0.031 0.4375,-6 z m 11.125,0 2.375,0 c -0.55781,1.1118 -1.11797,2.2223 -1.65625,3.3437 1.24951,0.911 2.51866,1.7948 3.78125,2.6875 l -4.5,0 z m -11.71875,8 1.71875,0 0,3 -1.9375,0 z m 3.71875,0 15.03125,0.031 c -1.3969,0.8316 -2.77593,1.6934 -4.1875,2.5 0.56872,2.2041 1.10693,4.416 1.65625,6.625 -4.07429,-2.0672 -8.20174,-4.0444 -12.25,-6.1563 l -0.25,0 0,-3 z" style="text-indent:0;text-transform:none;direction:ltr;block-progression:tb;baseline-shift:baseline;color:#000000;enable-background:accumulate;" fill="#000000" fill-opacity="1" stroke="none" marker="none" visibility="visible" display="inline" overflow="visible"/></g></svg>